<mxfile host="app.diagrams.net" modified="2021-05-17T03:50:58.623Z" agent="5.0 (Windows NT 10.0; Win64; x64) AppleWebKit/537.36 (KHTML, like Gecko) Chrome/90.0.4430.212 Safari/537.36" etag="vQIAsSH-Xn9fK-EqsdLx" version="14.6.13" type="github">
  <diagram id="R2lEEEUBdFMjLlhIrx00" name="Page-1">
    <mxGraphModel dx="1185" dy="635" grid="1" gridSize="10" guides="1" tooltips="1" connect="1" arrows="1" fold="1" page="1" pageScale="1" pageWidth="3300" pageHeight="4681" math="0" shadow="0" extFonts="Permanent Marker^https://fonts.googleapis.com/css?family=Permanent+Marker">
      <root>
        <mxCell id="0" />
        <mxCell id="1" parent="0" />
        <mxCell id="OpBFA18Ic4V4CZMrF-h3-1" value="Projects" style="swimlane;childLayout=stackLayout;horizontal=1;startSize=30;horizontalStack=0;rounded=1;fontSize=14;fontStyle=0;strokeWidth=2;resizeParent=0;resizeLast=1;shadow=0;dashed=0;align=center;" parent="1" vertex="1">
          <mxGeometry x="280" y="620" width="160" height="120" as="geometry" />
        </mxCell>
        <mxCell id="OpBFA18Ic4V4CZMrF-h3-2" value="+ID&#xa;+Whiteboard_id&#xa;+TaskList_id" style="align=left;strokeColor=none;fillColor=none;spacingLeft=4;fontSize=12;verticalAlign=top;resizable=0;rotatable=0;part=1;" parent="OpBFA18Ic4V4CZMrF-h3-1" vertex="1">
          <mxGeometry y="30" width="160" height="90" as="geometry" />
        </mxCell>
        <mxCell id="OpBFA18Ic4V4CZMrF-h3-3" value="Whiteboard" style="swimlane;childLayout=stackLayout;horizontal=1;startSize=30;horizontalStack=0;rounded=1;fontSize=14;fontStyle=0;strokeWidth=2;resizeParent=0;resizeLast=1;shadow=0;dashed=0;align=center;" parent="1" vertex="1">
          <mxGeometry x="290" y="760" width="160" height="120" as="geometry" />
        </mxCell>
        <mxCell id="OpBFA18Ic4V4CZMrF-h3-4" value="+ID&#xa;+IndexCardList_id&#xa;+StickyNoteList_id&#xa;+Name" style="align=left;strokeColor=none;fillColor=none;spacingLeft=4;fontSize=12;verticalAlign=top;resizable=0;rotatable=0;part=1;" parent="OpBFA18Ic4V4CZMrF-h3-3" vertex="1">
          <mxGeometry y="30" width="160" height="90" as="geometry" />
        </mxCell>
        <mxCell id="OpBFA18Ic4V4CZMrF-h3-5" value="StickyNotes" style="swimlane;childLayout=stackLayout;horizontal=1;startSize=30;horizontalStack=0;rounded=1;fontSize=14;fontStyle=0;strokeWidth=2;resizeParent=0;resizeLast=1;shadow=0;dashed=0;align=center;" parent="1" vertex="1">
          <mxGeometry x="320" y="950" width="160" height="120" as="geometry" />
        </mxCell>
        <mxCell id="OpBFA18Ic4V4CZMrF-h3-6" value="+ID&#xa;+Title&#xa;+Content&#xa;Author_id" style="align=left;strokeColor=none;fillColor=none;spacingLeft=4;fontSize=12;verticalAlign=top;resizable=0;rotatable=0;part=1;" parent="OpBFA18Ic4V4CZMrF-h3-5" vertex="1">
          <mxGeometry y="30" width="160" height="90" as="geometry" />
        </mxCell>
        <mxCell id="OpBFA18Ic4V4CZMrF-h3-7" value="IndexCards" style="swimlane;childLayout=stackLayout;horizontal=1;startSize=30;horizontalStack=0;rounded=1;fontSize=14;fontStyle=0;strokeWidth=2;resizeParent=0;resizeLast=1;shadow=0;dashed=0;align=center;" parent="1" vertex="1">
          <mxGeometry x="70" y="760" width="160" height="120" as="geometry" />
        </mxCell>
        <mxCell id="OpBFA18Ic4V4CZMrF-h3-8" value="+ID&#xa;+Title&#xa;+Content&#xa;+Author_id" style="align=left;strokeColor=none;fillColor=none;spacingLeft=4;fontSize=12;verticalAlign=top;resizable=0;rotatable=0;part=1;" parent="OpBFA18Ic4V4CZMrF-h3-7" vertex="1">
          <mxGeometry y="30" width="160" height="90" as="geometry" />
        </mxCell>
        <mxCell id="OpBFA18Ic4V4CZMrF-h3-9" value="Employee" style="swimlane;childLayout=stackLayout;horizontal=1;startSize=30;horizontalStack=0;rounded=1;fontSize=14;fontStyle=0;strokeWidth=2;resizeParent=0;resizeLast=1;shadow=0;dashed=0;align=center;" parent="1" vertex="1">
          <mxGeometry x="260" y="240" width="160" height="120" as="geometry" />
        </mxCell>
        <mxCell id="OpBFA18Ic4V4CZMrF-h3-10" value="+Id&#xa;+First Name&#xa;+Last Name" style="align=left;strokeColor=none;fillColor=none;spacingLeft=4;fontSize=12;verticalAlign=top;resizable=0;rotatable=0;part=1;" parent="OpBFA18Ic4V4CZMrF-h3-9" vertex="1">
          <mxGeometry y="30" width="160" height="90" as="geometry" />
        </mxCell>
        <mxCell id="OpBFA18Ic4V4CZMrF-h3-11" value="Is Manager" style="swimlane;childLayout=stackLayout;horizontal=1;startSize=30;horizontalStack=0;rounded=1;fontSize=14;fontStyle=0;strokeWidth=2;resizeParent=0;resizeLast=1;shadow=0;dashed=0;align=center;" parent="1" vertex="1">
          <mxGeometry x="530" y="240" width="160" height="120" as="geometry" />
        </mxCell>
        <mxCell id="OpBFA18Ic4V4CZMrF-h3-12" value="+Author_id&#xa;+ID&#xa;" style="align=left;strokeColor=none;fillColor=none;spacingLeft=4;fontSize=12;verticalAlign=top;resizable=0;rotatable=0;part=1;" parent="OpBFA18Ic4V4CZMrF-h3-11" vertex="1">
          <mxGeometry y="30" width="160" height="90" as="geometry" />
        </mxCell>
        <mxCell id="OpBFA18Ic4V4CZMrF-h3-14" value="Tasks" style="swimlane;childLayout=stackLayout;horizontal=1;startSize=30;horizontalStack=0;rounded=1;fontSize=14;fontStyle=0;strokeWidth=2;resizeParent=0;resizeLast=1;shadow=0;dashed=0;align=center;" parent="1" vertex="1">
          <mxGeometry x="530" y="560" width="160" height="120" as="geometry" />
        </mxCell>
        <mxCell id="OpBFA18Ic4V4CZMrF-h3-15" value="+ID&#xa;+Title&#xa;+Content&#xa;" style="align=left;strokeColor=none;fillColor=none;spacingLeft=4;fontSize=12;verticalAlign=top;resizable=0;rotatable=0;part=1;" parent="OpBFA18Ic4V4CZMrF-h3-14" vertex="1">
          <mxGeometry y="30" width="160" height="90" as="geometry" />
        </mxCell>
        <mxCell id="OpBFA18Ic4V4CZMrF-h3-16" value="Comments/Notes" style="swimlane;childLayout=stackLayout;horizontal=1;startSize=30;horizontalStack=0;rounded=1;fontSize=14;fontStyle=0;strokeWidth=2;resizeParent=0;resizeLast=1;shadow=0;dashed=0;align=center;" parent="1" vertex="1">
          <mxGeometry x="890" y="620" width="160" height="120" as="geometry" />
        </mxCell>
        <mxCell id="OpBFA18Ic4V4CZMrF-h3-17" value="+ID&#xa;+Title&#xa;+Content&#xa;" style="align=left;strokeColor=none;fillColor=none;spacingLeft=4;fontSize=12;verticalAlign=top;resizable=0;rotatable=0;part=1;" parent="OpBFA18Ic4V4CZMrF-h3-16" vertex="1">
          <mxGeometry y="30" width="160" height="90" as="geometry" />
        </mxCell>
        <mxCell id="OpBFA18Ic4V4CZMrF-h3-18" value="Project Member" style="swimlane;childLayout=stackLayout;horizontal=1;startSize=30;horizontalStack=0;rounded=1;fontSize=14;fontStyle=0;strokeWidth=2;resizeParent=0;resizeLast=1;shadow=0;dashed=0;align=center;" parent="1" vertex="1">
          <mxGeometry x="260" y="420" width="160" height="120" as="geometry" />
        </mxCell>
        <mxCell id="OpBFA18Ic4V4CZMrF-h3-19" value="+ID&#xa;+Project_id&#xa;+Employee_id&#xa;" style="align=left;strokeColor=none;fillColor=none;spacingLeft=4;fontSize=12;verticalAlign=top;resizable=0;rotatable=0;part=1;" parent="OpBFA18Ic4V4CZMrF-h3-18" vertex="1">
          <mxGeometry y="30" width="160" height="90" as="geometry" />
        </mxCell>
        <mxCell id="OpBFA18Ic4V4CZMrF-h3-20" value="Is Comment Author" style="swimlane;childLayout=stackLayout;horizontal=1;startSize=30;horizontalStack=0;rounded=1;fontSize=14;fontStyle=0;strokeWidth=2;resizeParent=0;resizeLast=1;shadow=0;dashed=0;align=center;" parent="1" vertex="1">
          <mxGeometry x="890" y="400" width="160" height="120" as="geometry" />
        </mxCell>
        <mxCell id="OpBFA18Ic4V4CZMrF-h3-21" value="+ID&#xa;+Author_id&#xa;+Comment_id" style="align=left;strokeColor=none;fillColor=none;spacingLeft=4;fontSize=12;verticalAlign=top;resizable=0;rotatable=0;part=1;" parent="OpBFA18Ic4V4CZMrF-h3-20" vertex="1">
          <mxGeometry y="30" width="160" height="90" as="geometry" />
        </mxCell>
        <mxCell id="OpBFA18Ic4V4CZMrF-h3-27" value="Task from" style="swimlane;childLayout=stackLayout;horizontal=1;startSize=30;horizontalStack=0;rounded=1;fontSize=14;fontStyle=0;strokeWidth=2;resizeParent=0;resizeLast=1;shadow=0;dashed=0;align=center;" parent="1" vertex="1">
          <mxGeometry x="530" y="400" width="160" height="120" as="geometry" />
        </mxCell>
        <mxCell id="OpBFA18Ic4V4CZMrF-h3-28" value="+ID&#xa;+Project_id&#xa;+Task_id" style="align=left;strokeColor=none;fillColor=none;spacingLeft=4;fontSize=12;verticalAlign=top;resizable=0;rotatable=0;part=1;" parent="OpBFA18Ic4V4CZMrF-h3-27" vertex="1">
          <mxGeometry y="30" width="160" height="90" as="geometry" />
        </mxCell>
        <mxCell id="OpBFA18Ic4V4CZMrF-h3-29" value="Task Assigned to" style="swimlane;childLayout=stackLayout;horizontal=1;startSize=30;horizontalStack=0;rounded=1;fontSize=14;fontStyle=0;strokeWidth=2;resizeParent=0;resizeLast=1;shadow=0;dashed=0;align=center;" parent="1" vertex="1">
          <mxGeometry x="520" y="760" width="160" height="120" as="geometry" />
        </mxCell>
        <mxCell id="OpBFA18Ic4V4CZMrF-h3-30" value="+ID&#xa;+Employee_id&#xa;+Manager_id&#xa;+Task_id" style="align=left;strokeColor=none;fillColor=none;spacingLeft=4;fontSize=12;verticalAlign=top;resizable=0;rotatable=0;part=1;" parent="OpBFA18Ic4V4CZMrF-h3-29" vertex="1">
          <mxGeometry y="30" width="160" height="90" as="geometry" />
        </mxCell>
        <mxCell id="gRwNsp0DuQkm6THSXlZN-3" value="" style="edgeStyle=entityRelationEdgeStyle;fontSize=12;html=1;endArrow=ERmandOne;startArrow=ERmandOne;exitX=1;exitY=0.5;exitDx=0;exitDy=0;entryX=0;entryY=0.5;entryDx=0;entryDy=0;" edge="1" parent="1" source="OpBFA18Ic4V4CZMrF-h3-10" target="OpBFA18Ic4V4CZMrF-h3-12">
          <mxGeometry width="100" height="100" relative="1" as="geometry">
            <mxPoint x="480" y="510" as="sourcePoint" />
            <mxPoint x="580" y="410" as="targetPoint" />
          </mxGeometry>
        </mxCell>
        <mxCell id="gRwNsp0DuQkm6THSXlZN-4" value="" style="edgeStyle=entityRelationEdgeStyle;fontSize=12;html=1;endArrow=ERmany;startArrow=ERmany;entryX=0.5;entryY=1;entryDx=0;entryDy=0;exitX=0.5;exitY=0;exitDx=0;exitDy=0;" edge="1" parent="1" source="OpBFA18Ic4V4CZMrF-h3-1" target="OpBFA18Ic4V4CZMrF-h3-19">
          <mxGeometry width="100" height="100" relative="1" as="geometry">
            <mxPoint x="480" y="590" as="sourcePoint" />
            <mxPoint x="580" y="490" as="targetPoint" />
          </mxGeometry>
        </mxCell>
        <mxCell id="gRwNsp0DuQkm6THSXlZN-5" value="" style="edgeStyle=entityRelationEdgeStyle;fontSize=12;html=1;endArrow=ERoneToMany;exitX=0.5;exitY=1;exitDx=0;exitDy=0;" edge="1" parent="1" source="OpBFA18Ic4V4CZMrF-h3-2" target="OpBFA18Ic4V4CZMrF-h3-4">
          <mxGeometry width="100" height="100" relative="1" as="geometry">
            <mxPoint x="480" y="760" as="sourcePoint" />
            <mxPoint x="580" y="660" as="targetPoint" />
          </mxGeometry>
        </mxCell>
      </root>
    </mxGraphModel>
  </diagram>
</mxfile>
